ModelForces
version=1
nRows=4
nColumns=206
inDegrees=no

This file contains the forces exerted on a model during a simulation.

A force is a generalized force, meaning that it can be either a force (N) or a torque (Nm).

Units are S.I. units (second, meters, Newtons, ...)
Angles are in degrees.

endheader
time	glut_med1_r	glut_med2_r	glut_med3_r	glut_min1_r	glut_min2_r	glut_min3_r	semimem_r	semiten_r	bifemlh_r	bifemsh_r	sar_r	add_long_r	add_brev_r	add_mag1_r	add_mag2_r	add_mag3_r	tfl_r	pect_r	grac_r	glut_max1_r	glut_max2_r	glut_max3_r	iliacus_r	psoas_r	quad_fem_r	gem_r	peri_r	rect_fem_r	vas_med_r	vas_int_r	vas_lat_r	med_gas_r	lat_gas_r	soleus_r	tib_post_r	flex_dig_r	flex_hal_r	tib_ant_r	per_brev_r	per_long_r	per_tert_r	ext_dig_r	ext_hal_r	glut_med1_l	glut_med2_l	glut_med3_l	glut_min1_l	glut_min2_l	glut_min3_l	semimem_l	semiten_l	bifemlh_l	bifemsh_l	sar_l	add_long_l	add_brev_l	add_mag1_l	add_mag2_l	add_mag3_l	tfl_l	pect_l	grac_l	glut_max1_l	glut_max2_l	glut_max3_l	iliacus_l	psoas_l	quad_fem_l	gem_l	peri_l	rect_fem_l	vas_med_l	vas_int_l	vas_lat_l	med_gas_l	lat_gas_l	soleus_l	tib_post_l	flex_dig_l	flex_hal_l	tib_ant_l	per_brev_l	per_long_l	per_tert_l	ext_dig_l	ext_hal_l	ercspn_r	ercspn_l	intobl_r	intobl_l	extobl_r	extobl_l	femur_lat_meniscii_l.femur_lat_l.force.X	femur_lat_meniscii_l.femur_lat_l.force.Y	femur_lat_meniscii_l.femur_lat_l.force.Z	femur_lat_meniscii_l.femur_lat_l.torque.X	femur_lat_meniscii_l.femur_lat_l.torque.Y	femur_lat_meniscii_l.femur_lat_l.torque.Z	femur_lat_meniscii_l.meniscus_lat_l.force.X	femur_lat_meniscii_l.meniscus_lat_l.force.Y	femur_lat_meniscii_l.meniscus_lat_l.force.Z	femur_lat_meniscii_l.meniscus_lat_l.torque.X	femur_lat_meniscii_l.meniscus_lat_l.torque.Y	femur_lat_meniscii_l.meniscus_lat_l.torque.Z	femur_med_meniscii_l.femur_med_l.force.X	femur_med_meniscii_l.femur_med_l.force.Y	femur_med_meniscii_l.femur_med_l.force.Z	femur_med_meniscii_l.femur_med_l.torque.X	femur_med_meniscii_l.femur_med_l.torque.Y	femur_med_meniscii_l.femur_med_l.torque.Z	femur_med_meniscii_l.meniscus_med_l.force.X	femur_med_meniscii_l.meniscus_med_l.force.Y	femur_med_meniscii_l.meniscus_med_l.force.Z	femur_med_meniscii_l.meniscus_med_l.torque.X	femur_med_meniscii_l.meniscus_med_l.torque.Y	femur_med_meniscii_l.meniscus_med_l.torque.Z	femur_lat_meniscii_r.femur_lat_r.force.X	femur_lat_meniscii_r.femur_lat_r.force.Y	femur_lat_meniscii_r.femur_lat_r.force.Z	femur_lat_meniscii_r.femur_lat_r.torque.X	femur_lat_meniscii_r.femur_lat_r.torque.Y	femur_lat_meniscii_r.femur_lat_r.torque.Z	femur_lat_meniscii_r.meniscus_lat_r.force.X	femur_lat_meniscii_r.meniscus_lat_r.force.Y	femur_lat_meniscii_r.meniscus_lat_r.force.Z	femur_lat_meniscii_r.meniscus_lat_r.torque.X	femur_lat_meniscii_r.meniscus_lat_r.torque.Y	femur_lat_meniscii_r.meniscus_lat_r.torque.Z	femur_med_meniscii_r.femur_med_r.force.X	femur_med_meniscii_r.femur_med_r.force.Y	femur_med_meniscii_r.femur_med_r.force.Z	femur_med_meniscii_r.femur_med_r.torque.X	femur_med_meniscii_r.femur_med_r.torque.Y	femur_med_meniscii_r.femur_med_r.torque.Z	femur_med_meniscii_r.meniscus_med_r.force.X	femur_med_meniscii_r.meniscus_med_r.force.Y	femur_med_meniscii_r.meniscus_med_r.force.Z	femur_med_meniscii_r.meniscus_med_r.torque.X	femur_med_meniscii_r.meniscus_med_r.torque.Y	femur_med_meniscii_r.meniscus_med_r.torque.Z	femur_med_tibia_l.tibia_upper_l.force.X	femur_med_tibia_l.tibia_upper_l.force.Y	femur_med_tibia_l.tibia_upper_l.force.Z	femur_med_tibia_l.tibia_upper_l.torque.X	femur_med_tibia_l.tibia_upper_l.torque.Y	femur_med_tibia_l.tibia_upper_l.torque.Z	femur_med_tibia_l.femur_med_l.force.X	femur_med_tibia_l.femur_med_l.force.Y	femur_med_tibia_l.femur_med_l.force.Z	femur_med_tibia_l.femur_med_l.torque.X	femur_med_tibia_l.femur_med_l.torque.Y	femur_med_tibia_l.femur_med_l.torque.Z	femur_lat_tibia_l.tibia_upper_l.force.X	femur_lat_tibia_l.tibia_upper_l.force.Y	femur_lat_tibia_l.tibia_upper_l.force.Z	femur_lat_tibia_l.tibia_upper_l.torque.X	femur_lat_tibia_l.tibia_upper_l.torque.Y	femur_lat_tibia_l.tibia_upper_l.torque.Z	femur_lat_tibia_l.femur_lat_l.force.X	femur_lat_tibia_l.femur_lat_l.force.Y	femur_lat_tibia_l.femur_lat_l.force.Z	femur_lat_tibia_l.femur_lat_l.torque.X	femur_lat_tibia_l.femur_lat_l.torque.Y	femur_lat_tibia_l.femur_lat_l.torque.Z	femur_med_tibia_r.tibia_upper_r.force.X	femur_med_tibia_r.tibia_upper_r.force.Y	femur_med_tibia_r.tibia_upper_r.force.Z	femur_med_tibia_r.tibia_upper_r.torque.X	femur_med_tibia_r.tibia_upper_r.torque.Y	femur_med_tibia_r.tibia_upper_r.torque.Z	femur_med_tibia_r.femur_med_r.force.X	femur_med_tibia_r.femur_med_r.force.Y	femur_med_tibia_r.femur_med_r.force.Z	femur_med_tibia_r.femur_med_r.torque.X	femur_med_tibia_r.femur_med_r.torque.Y	femur_med_tibia_r.femur_med_r.torque.Z	femur_lat_tibia_r.tibia_upper_r.force.X	femur_lat_tibia_r.tibia_upper_r.force.Y	femur_lat_tibia_r.tibia_upper_r.force.Z	femur_lat_tibia_r.tibia_upper_r.torque.X	femur_lat_tibia_r.tibia_upper_r.torque.Y	femur_lat_tibia_r.tibia_upper_r.torque.Z	femur_lat_tibia_r.femur_lat_r.force.X	femur_lat_tibia_r.femur_lat_r.force.Y	femur_lat_tibia_r.femur_lat_r.force.Z	femur_lat_tibia_r.femur_lat_r.torque.X	femur_lat_tibia_r.femur_lat_r.torque.Y	femur_lat_tibia_r.femur_lat_r.torque.Z	aACL_R	pACL_R	aPCL_R	pPCL_R	aMCL_R	mMCL_R	pMCL_R	aLCL_R	mLCL_R	pLCL_R	aPCL_L	pPCL_L	aMCL_L	aLCL_L	ground_prescribedForce_-60_fx	ground_prescribedForce_-60_fy	ground_prescribedForce_-60_fz
      0.21874930	      9.46850792	      6.98155782	      7.49263625	      3.24754122	      3.81772431	      4.00311939	      0.00000000	      5.09473930	      6.14852513	      7.84281276	      1.95830416	      6.93393893	      5.04847793	      3.59183872	      3.03445769	      5.03778720	      4.45865559	      2.73790551	      1.94157449	      4.50555668	      6.85106583	      5.13333820	     25.04314169	     15.67714913	      4.44898525	      3.24426790	      5.51390800	     56.43741465	     20.18211985	     21.44944110	     29.23052916	      0.00000000	      0.91707984	     11.66281620	     28.73152331	      3.35805141	      4.04239567	     16.83715759	      3.07708259	      8.43925363	      6.85149173	      8.48363690	      2.80474704	      9.46850792	      6.98155782	      7.49263625	      3.24754122	      3.81772431	      4.00311939	     11.48071629	      5.11161535	      9.98142203	      8.85353841	      1.85445378	      6.93393893	      5.04847793	      3.59183872	      3.03445769	      5.03778720	      4.74768508	      2.73790551	      1.90864483	      4.50555668	      6.85106583	      5.13333820	     25.04314169	     15.67714913	      4.44898525	      3.24426790	      5.51390800	     13.80447994	      8.16627920	      9.40525981	     10.10436630	     19.51723434	      9.06594109	     41.92014554	     46.77077255	      3.89336981	      3.97964478	     10.82757858	      5.71837255	     15.51543782	      2.42514853	      7.10145556	      2.23173907	     30.55623558	     30.55623558	     11.19267943	     11.19267943	     28.77639280	     28.77639280	      2.76307435	     50.99597937	     -9.56042239	      5.21997485	     -0.02578839	      1.48581788	     -2.76307435	    -50.99597937	      9.56042239	     -1.74637766	      0.02558040	     -0.48301696	     -3.31599387	     20.97615968	     -3.40468921	      0.94473225	     -0.02138609	     -1.00501789	      3.31599387	    -20.97615968	      3.40468921	      0.28075727	      0.00368718	     -0.29758878	    363.47890504	    149.70519131	     64.16778349	    -29.75352240	      8.87312310	    148.41431524	   -363.47890504	   -149.70519131	    -64.16778349	      5.40083174	    -11.87866594	     -3.45629739	    488.48382168	    -40.14435195	    -57.41680238	     22.58132053	     -9.91666341	    198.40001138	   -488.48382168	     40.14435195	     57.41680238	     -0.37743961	      9.02104399	     -8.87028804	      0.00000000	      0.00000000	      0.00000000	      0.00000000	      0.00000000	      0.00000000	      0.00000000	      0.00000000	      0.00000000	      0.00000000	      0.00000000	      0.00000000	      0.00000000	      0.00000000	      0.00000000	      0.00000000	      0.00000000	      0.00000000	      0.00000000	      0.00000000	      0.00000000	      0.00000000	      0.00000000	      0.00000000	    -56.36271002	    -36.60029608	     31.42801669	     -1.08926867	      1.38587674	     -0.33851523	     56.36271002	     36.60029608	    -31.42801669	     13.50097750	     -0.94644717	     23.10930617	      0.00000000	      0.00000000	      0.00000000	      0.00000000	      0.00000000	      0.00000000	      0.00000000	      0.00000000	      0.00000000	      0.00000000	      0.00000000	      0.00000000	      0.00000000	      0.00000000	    568.75161702	    278.75787233	     13.09595779	      8.24590791	      4.77608239	      0.00000000	      0.00000000	      0.00000000	      0.00000000	      0.00000000	      0.00000001	      0.00000000	     55.00000000	    -95.26270000	      0.00000000
      0.22012170	      9.43424441	      6.95818367	      7.46724014	      3.23712678	      3.80638741	      3.98866686	      0.00000000	      5.06813905	      6.12651196	      7.82041748	      1.94943619	      6.91045033	      5.03243819	      3.57988343	      3.02411581	      5.01903669	      4.46611027	      2.72906545	      1.93179411	      4.49044585	      6.82802680	      5.11577864	     25.00041252	     15.62858736	      4.43440403	      3.23727117	      5.48969865	     56.40239025	     20.06209483	     21.32610647	     29.06942424	      0.00000000	      0.91303933	     11.60799284	     28.55704701	      3.46624727	      4.09585473	     16.76116430	      3.05919819	      8.36643522	      6.87664679	      8.33707927	      2.76519705	      9.43424441	      6.95818367	      7.46724014	      3.23712678	      3.80638741	      3.98866686	     11.43281167	      5.09327537	      9.94088036	      8.82449551	      1.84853449	      6.91045033	      5.03243819	      3.57988343	      3.02411581	      5.01903669	      4.73606470	      2.72906545	      1.90244509	      4.49044585	      6.82802680	      5.11577864	     25.00041252	     15.62858736	      4.43440403	      3.23727117	      5.48969865	     13.74902158	      8.13819916	      9.37233383	     10.06909183	     19.42738444	      9.02414582	     41.73563282	     46.69359454	      3.87367480	      3.96123650	     10.78536427	      5.69423254	     15.46361315	      2.41765228	      7.06891727	      2.22164326	     30.45802220	     30.45802220	     11.15362071	     11.15362071	     28.74120400	     28.74120400	      2.76307435	     50.99597937	     -9.56042239	      5.21997485	     -0.02578839	      1.48581788	     -2.76307435	    -50.99597937	      9.56042239	     -1.74637766	      0.02558040	     -0.48301696	     -3.31599387	     20.97615968	     -3.40468921	      0.94473225	     -0.02138609	     -1.00501789	      3.31599387	    -20.97615968	      3.40468921	      0.28075727	      0.00368718	     -0.29758878	    363.11072967	    148.73061234	     64.76801981	    -29.98342933	      8.87105678	    148.27896620	   -363.11072967	   -148.73061234	    -64.76801981	      5.39388944	    -11.89407587	     -3.48001634	    491.53255176	    -32.81676774	    -54.97404501	     21.67779860	     -9.91605486	    199.56149817	   -491.53255176	     32.81676774	     54.97404501	     -0.39352205	      8.94589534	     -8.67592181	      0.00000000	      0.00000000	      0.00000000	      0.00000000	      0.00000000	      0.00000000	      0.00000000	      0.00000000	      0.00000000	      0.00000000	      0.00000000	      0.00000000	      0.00000000	      0.00000000	      0.00000000	      0.00000000	      0.00000000	      0.00000000	      0.00000000	      0.00000000	      0.00000000	      0.00000000	      0.00000000	      0.00000000	    -55.48602314	    -36.00899820	     30.85484983	     -1.06933479	      1.36127577	     -0.33338692	     55.48602314	     36.00899820	    -30.85484983	     13.25604723	     -0.93131808	     22.75043181	      0.00000000	      0.00000000	      0.00000000	      0.00000000	      0.00000000	      0.00000000	      0.00000000	      0.00000000	      0.00000000	      0.00000000	      0.00000000	      0.00000000	      0.00000000	      0.00000000	    568.45794864	    278.58507680	     13.07618929	      8.18541611	      4.67700170	      0.00000000	      0.00000000	      0.00000000	      0.00000000	      0.00000000	      0.00000001	      0.00000000	     55.00000000	    -95.26270000	      0.00000000
      0.22185158	      9.39193572	      6.92931751	      7.43587826	      3.22426355	      3.79238638	      3.97082064	      0.00000000	      5.04224634	      6.10967728	      7.82475293	      1.94210198	      6.88144406	      5.01262631	      3.56511925	      3.01134516	      4.99588366	      4.47797938	      2.71814714	      1.92421025	      4.47178559	      6.79957612	      5.09409529	     24.94765224	     15.56863270	      4.41639565	      3.22863357	      5.45976766	     56.39472564	     19.95191003	     21.21352313	     28.91679321	      0.00000000	      0.91238434	     11.54505201	     28.31363471	      3.60323713	      4.16375111	     16.66374824	      3.04381106	      8.28765540	      6.91128882	      8.14564528	      2.71343971	      9.39193572	      6.92931751	      7.43587826	      3.22426355	      3.79238638	      3.97082064	     11.37362255	      5.07062893	      9.89079935	      8.78862673	      1.84122323	      6.88144406	      5.01262631	      3.56511925	      3.01134516	      4.99588366	      4.72171599	      2.71814714	      1.89478792	      4.47178559	      6.79957612	      5.09409529	     24.94765224	     15.56863270	      4.41639565	      3.22863357	      5.45976766	     13.68051877	      8.10352728	      9.33167989	     10.02553975	     19.31620152	      8.97242827	     41.50752104	     46.59825524	      3.84935483	      3.93851312	     10.73322923	      5.66440421	     15.39954624	      2.40839679	      7.02865684	      2.20915531	     30.33671632	     30.33671632	     11.10538916	     11.10538916	     28.69775549	     28.69775549	      2.76307435	     50.99597937	     -9.56042239	      5.21997485	     -0.02578839	      1.48581788	     -2.76307435	    -50.99597937	      9.56042239	     -1.74637766	      0.02558040	     -0.48301696	     -3.31599387	     20.97615968	     -3.40468921	      0.94473225	     -0.02138609	     -1.00501789	      3.31599387	    -20.97615968	      3.40468921	      0.28075727	      0.00368718	     -0.29758878	    362.62486726	    146.34996743	     63.02243342	    -29.21142523	      8.84034160	    148.11179229	   -362.62486726	   -146.34996743	    -63.02243342	      5.29336812	    -11.83009950	     -3.54686893	    490.57896699	    -34.54222445	    -57.44845021	     22.65648772	     -9.92148606	    199.19918545	   -490.57896699	     34.54222445	     57.44845021	     -0.41484001	      9.00054505	     -8.71370031	      0.00000000	      0.00000000	      0.00000000	      0.00000000	      0.00000000	      0.00000000	      0.00000000	      0.00000000	      0.00000000	      0.00000000	      0.00000000	      0.00000000	      0.00000000	      0.00000000	      0.00000000	      0.00000000	      0.00000000	      0.00000000	      0.00000000	      0.00000000	      0.00000000	      0.00000000	      0.00000000	      0.00000000	    -54.00499610	    -34.90800868	     30.22817492	     -1.04382464	      1.33023461	     -0.32797837	     54.00499610	     34.90800868	    -30.22817492	     12.98263444	     -0.90837776	     22.14476225	      0.00000000	      0.00000000	      0.00000000	      0.00000000	      0.00000000	      0.00000000	      0.00000000	      0.00000000	      0.00000000	      0.00000000	      0.00000000	      0.00000000	      0.00000000	      0.00000000	    568.20127822	    278.39413639	     13.34903008	      8.38828524	      4.80383229	      0.00000000	      0.00000000	      0.00000000	      0.00000000	      0.00000000	      0.00000001	      0.00000000	     55.00000000	    -95.26270000	      0.00000000
      0.22311054	      9.36174941	      6.90871962	      7.41350040	      3.21508354	      3.78239545	      3.95808764	      0.00000000	      5.02542681	      6.09918277	      7.82468492	      1.93707436	      6.86074702	      4.99848675	      3.55458413	      3.00223325	      4.97936459	      4.48712957	      2.71035539	      1.91878853	      4.45847097	      6.77927580	      5.07862417	     24.91001012	     15.52586286	      4.40354472	      3.22247217	      5.43838698	     56.39683749	     19.88576335	     21.14603498	     28.82580957	      0.00000000	      0.91048110	     11.49744803	     28.11875002	      3.70295252	      4.21250335	     16.59199294	      3.03831096	      8.23992945	      6.94109297	      8.00324022	      2.67480834	      9.36174941	      6.90871962	      7.41350040	      3.21508354	      3.78239545	      3.95808764	     11.33136763	      5.05447107	      9.85505402	      8.76303068	      1.83600536	      6.86074702	      4.99848675	      3.55458413	      3.00223325	      4.97936459	      4.71147862	      2.71035539	      1.88932354	      4.45847097	      6.77927580	      5.07862417	     24.91001012	     15.52586286	      4.40354472	      3.22247217	      5.43838698	     13.63162810	      8.07879061	      9.30267631	      9.99446962	     19.23671196	      8.93545390	     41.34457934	     46.53020524	      3.83200215	      3.92230493	     10.69602614	      5.64310855	     15.35378493	      2.40179382	      6.99987636	      2.20023094	     30.25014548	     30.25014548	     11.07097583	     11.07097583	     28.66675773	     28.66675773	      2.76307435	     50.99597937	     -9.56042239	      5.21997485	     -0.02578839	      1.48581788	     -2.76307435	    -50.99597937	      9.56042239	     -1.74637766	      0.02558040	     -0.48301696	     -3.31599387	     20.97615968	     -3.40468921	      0.94473225	     -0.02138609	     -1.00501789	      3.31599387	    -20.97615968	      3.40468921	      0.28075727	      0.00368718	     -0.29758878	    361.23669789	    145.11549513	     63.90817593	    -29.55126634	      8.81939995	    147.55739647	   -361.23669789	   -145.11549513	    -63.90817593	      5.28356642	    -11.82760219	     -3.55515564	    505.08416956	    -28.91784698	    -55.81470305	     22.09172122	    -10.14751659	    205.02435027	   -505.08416956	     28.91784698	     55.81470305	     -0.46159021	      9.11944721	     -8.75408977	      0.00000000	      0.00000000	      0.00000000	      0.00000000	      0.00000000	      0.00000000	      0.00000000	      0.00000000	      0.00000000	      0.00000000	      0.00000000	      0.00000000	      0.00000000	      0.00000000	      0.00000000	      0.00000000	      0.00000000	      0.00000000	      0.00000000	      0.00000000	      0.00000000	      0.00000000	      0.00000000	      0.00000000	    -53.00410241	    -34.37842245	     29.47888172	     -1.02000838	      1.29953301	     -0.31795673	     53.00410241	     34.37842245	    -29.47888172	     12.66527301	     -0.89030716	     21.73380771	      0.00000000	      0.00000000	      0.00000000	      0.00000000	      0.00000000	      0.00000000	      0.00000000	      0.00000000	      0.00000000	      0.00000000	      0.00000000	      0.00000000	      0.00000000	      0.00000000	    568.18457652	    278.74884207	     13.54686497	      8.56500054	      4.96021830	      0.00000000	      0.00000000	      0.00000000	      0.00000000	      0.00000000	      0.00000001	      0.00000000	     55.00000000	    -95.26270000	      0.00000000
